# xmcd
#
# Track frame offsets:
#	150
#	14537
#	27661
#	39098
#	52002
#	65342
#	79432
#	91251
#	104939
#	118637
#	131761
#	146982
#	161456
#	175181
#	189231
#	202089
#	215173
#	230945
#	245707
#	261735
#
# Disc length: 3655 seconds
#
# Revision: 1
# Processed by: cddbd v1.5.2PL0 Copyright (c) Steve Scherf et al.
# Submitted via: audiograbber 1.83.01
#
DISCID=410e4514
DTITLE=Various Artist - Goin' Mad Blues CD 6
DYEAR=2006
DGENRE=Blues
TTITLE0=Jimmy Yancey - Yancey's Getaway
TTITLE1=Leadbelly - Rock Island Line
TTITLE2=Blind Boy Fuller - Got To Find My Little Woman
TTITLE3=Memphis Slim - Me, Myself And I
TTITLE4=Sleepy John Estes - Jailhouse Blues
TTITLE5=Henry Thomas - Red River Blues
TTITLE6=Memphis Minnie - I'm Not A Bad Girl
TTITLE7=Willie Newbern - Roll And Tumble Blues Hambone
TTITLE8=Arthur 'Big Boy' Crudup - I'm In The Mood
TTITLE9=Robert Johnson - 32-20 Blues
TTITLE10=John Lee 'Sonny Boy' Williamson - Love Me Baby
TTITLE11=Kokomo Arnold - Black Mattie
TTITLE12=Big Joe Turner - Johnson And Turner Blues
TTITLE13=Bessie Smith - Gulf Coast Blues
TTITLE14=Big Bill Broonzy - It's Your Time Now
TTITLE15=Lightnin' Hopkins - Thinkin' And Worryin'
TTITLE16=T-Bone Walker - Evening
TTITLE17=Blind Willie McTell - Savannah Mama
TTITLE18=Blind Boy Fuller and Sonny Terry - Lonesome Train
TTITLE19=Big Joe Williams - I'm Getting Wild About Her
EXTD=
EXTT0=
EXTT1=
EXTT2=
EXTT3=
EXTT4=
EXTT5=
EXTT6=
EXTT7=
EXTT8=
EXTT9=
EXTT10=
EXTT11=
EXTT12=
EXTT13=
EXTT14=
EXTT15=
EXTT16=
EXTT17=
EXTT18=
EXTT19=
PLAYORDER=
